<!DOCTYPE svg PUBLIC "-//W3C//DTD SVG 1.1//EN" "http://www.w3.org/Graphics/SVG/1.1/DTD/svg11.dtd">
<!-- Uploaded to: SVG Repo, www.svgrepo.com, Transformed by: SVG Repo Mixer Tools -->
<svg height="800px" width="800px" version="1.1" id="Capa_1" xmlns="http://www.w3.org/2000/svg" xmlns:xlink="http://www.w3.org/1999/xlink" viewBox="0 0 56.345 56.345" xml:space="preserve" fill="#000000">
<g id="SVGRepo_bgCarrier" stroke-width="0"/>
<g id="SVGRepo_tracerCarrier" stroke-linecap="round" stroke-linejoin="round"/>
<g id="SVGRepo_iconCarrier"> <g> <path style="fill:#ffffff;" d="M25.041,21.371c-2.664-1.292-5.526-0.754-7.928,0.965c-1.997,1.43-4.731,4.595-3.944,7.246 c0.269,0.908,1.624,1.175,2.099,0.274c0.518-0.984,0.489-2.075,0.946-3.092c0.463-1.031,1.25-1.916,2.122-2.619 c1.809-1.46,4.227-2.16,6.54-2.164C25.185,21.982,25.344,21.518,25.041,21.371z"/> <path style="fill:#ffffff;" d="M52.818,4.441c-0.803-3.172-4.666-5.322-7.749-4.086c-0.268,0.107-0.418,0.297-0.487,0.504 c-2.519,0.978-4.007,3.918-3.402,6.607c0.156,0.695,0.458,1.329,0.858,1.895c-3.693,2.501-6.672,5.991-9.346,9.519 c-0.432,0.571,0.523,1.305,0.994,0.767c2.877-3.283,6.076-6.29,8.89-9.623c0.428,0.449,0.932,0.824,1.476,1.131 c-1.616,1.451-2.884,3.387-4.249,5.045c-1.546,1.879-3.696,3.73-4.748,5.926c-0.018,0.038-0.01,0.075-0.016,0.112 c-3.217-4.432-9.407-6.872-14.171-3.987c-2.576-3.011-4.835-6.186-6.921-9.547c0.708-1.069,1.051-2.364,0.791-3.747 c-0.6-3.195-3.961-5.564-7.11-4.487C7.593,0.482,7.564,0.502,7.535,0.523C7.451,0.469,7.354,0.427,7.237,0.416 C4.341,0.168,3.065,4.81,3.41,6.962c0.498,3.103,3.388,4.872,6.408,4.388c0.152-0.024,0.301-0.059,0.45-0.094 c1.47,3.426,3.905,6.737,6.504,9.306c-4.631,2.489-7.097,8-5.681,13.64c1.902,7.575,10.649,11.51,17.763,8.606 c0.839-0.343,1.626-0.77,2.358-1.265c1.637,2.571,3.367,5.212,5.312,7.562c-0.361,0.794-0.533,1.674-0.459,2.523 c0.268,3.071,3.535,5.057,6.436,4.669c3.042-0.408,5.56-3.593,4.694-6.677c-0.579-2.06-3.93-4.363-5.978-3.043 c-0.042-0.093-0.11-0.171-0.238-0.192c-0.284-0.047-0.56-0.05-0.83-0.033c-0.864-1.572-2.186-2.952-3.3-4.343 c-0.874-1.091-1.772-2.16-2.676-3.226c3.05-3.789,4.129-9.126,2.369-13.806c-0.305-0.812-0.715-1.584-1.198-2.312 c0.067,0.006,0.138,0.001,0.211-0.039c2.222-1.223,3.976-3.755,5.59-5.668c1.38-1.636,2.972-3.383,3.864-5.364 c1.151,0.422,2.417,0.531,3.61,0.203C51.685,10.956,53.591,7.497,52.818,4.441z M9.83,9.524C9.669,9.566,9.509,9.612,9.346,9.638 C7.122,9.991,5.185,8.636,4.939,6.361c-0.11-1.022,0.13-2.119,0.655-3.002c0.527-0.886,1.428-1.21,2.051-1.958 C7.69,1.346,7.701,1.286,7.726,1.228c0.002,0,0.004,0.001,0.006,0.001c1.154-0.059,2.343,0.336,3.306,1.033 c-0.459-0.013-0.924,0.018-1.366,0.048c-0.598,0.042-1.31,0.022-1.79,0.407C7.852,2.74,7.879,2.781,7.909,2.784 C7.969,2.789,8.03,2.795,8.09,2.801c0.01,0.001,0.014-0.007,0.017-0.015c0.018,0.068,0.056,0.108,0.12,0.104 c0.213-0.027,0.426-0.049,0.64-0.068c0.375-0.035,0.75-0.064,1.126-0.079c0.539-0.022,1.084,0.019,1.622-0.007 c0.362,0.346,0.663,0.747,0.903,1.181c-1.563,0.113-3.122,0.318-4.676,0.498c-0.15,0.017-0.155,0.252,0,0.239 c1.606-0.132,3.221-0.241,4.821-0.447c0.204,0.442,0.347,0.914,0.385,1.416c0.001,0.018-0.002,0.034-0.001,0.051 c-1.651,0.021-3.31,0.172-4.953,0.273c-0.164,0.01-0.167,0.262,0,0.258c1.642-0.043,3.304-0.039,4.946-0.161 c-0.022,0.46-0.147,0.882-0.335,1.269c-1.874,0.272-3.712,0.682-5.61,0.85c-0.213,0.019-0.22,0.346,0,0.338 c1.724-0.067,3.587-0.207,5.289-0.656c-0.493,0.677-1.216,1.199-2.031,1.51C10.156,9.319,9.951,9.384,9.83,9.524z M11.543,10.801 c0.698-0.338,1.314-0.811,1.83-1.367c1.645,3.483,3.85,6.716,6.417,9.588c-0.222,0.183-0.441,0.376-0.653,0.586 c-0.364,0.1-0.718,0.219-1.063,0.351c-0.028-0.089-0.073-0.178-0.141-0.262C15.618,16.814,13.616,13.821,11.543,10.801z M40.49,47.341c-0.124,0.384,0.05,0.887,0.544,0.844c0.793-0.069,1.511-0.383,2.321-0.193c0.624,0.146,1.212,0.513,1.642,1.007 c-1.716-0.041-3.454,0.061-5.156,0.098c-0.238,0.005-0.239,0.365,0,0.37c1.825,0.039,3.692,0.145,5.53,0.078 c0.089,0.166,0.168,0.337,0.22,0.517c0.077,0.265,0.104,0.528,0.107,0.788c-1.792,0.023-3.574,0.029-5.367-0.122 c-0.179-0.015-0.173,0.256,0,0.277c1.772,0.214,3.563,0.324,5.346,0.224c-0.055,0.485-0.211,0.953-0.463,1.377 c-1.786-0.077-3.59-0.03-5.374,0.018c-0.202,0.005-0.202,0.309,0,0.314c1.703,0.047,3.425,0.091,5.132,0.028 c-0.746,0.994-1.957,1.685-3.158,1.708c-1.883,0.036-3.959-1.274-4.16-3.272C37.46,49.458,38.836,48.014,40.49,47.341z M35.931,42.717c0.935,1.314,1.813,2.762,2.91,3.964c-0.597,0.276-1.126,0.698-1.558,1.217c-1.631-2.383-3.545-4.661-5.425-6.839 c0.65-0.5,1.244-1.062,1.791-1.666C34.397,40.509,35.151,41.621,35.931,42.717z M35.476,28.787 c-3.882-0.128-7.788,0.081-11.638,0.576c-0.172,0.022-0.181,0.291,0,0.277c3.893-0.301,7.758-0.393,11.657-0.359 c0.023,0.668-0.016,1.335-0.103,1.996c-4.129,0.029-8.271,0.409-12.339,1.11c-0.147,0.025-0.115,0.28,0.035,0.262 c4.074-0.475,8.126-0.749,12.222-0.871c-0.151,0.865-0.409,1.709-0.734,2.526c-0.005-0.119-0.082-0.238-0.236-0.248 c-2.995-0.185-6.02-0.036-9.004,0.246c-0.213,0.02-0.219,0.35,0,0.337c3.008-0.173,5.994-0.135,9.004-0.087 c0.076,0.001,0.13-0.028,0.17-0.069c-0.358,0.861-0.821,1.673-1.357,2.436c-3.602,0.102-7.222,0.256-10.81,0.536 c-0.166,0.013-0.171,0.262,0,0.263c3.348,0.019,6.716-0.074,10.068-0.216c0.007,0.019-0.003,0.037,0.01,0.056 c0.042,0.064,0.085,0.127,0.128,0.191c-0.402,0.48-0.844,0.926-1.313,1.339c-0.034-0.047-0.081-0.081-0.156-0.074 c-2.258,0.235-4.471,0.491-6.739,0.637c-0.184,0.012-0.178,0.262,0,0.281c2.034,0.223,4.357,0.097,6.378-0.411 c-1.065,0.835-2.275,1.488-3.601,1.891c-5.528,1.678-11.824-1.16-13.882-6.578c-2.241-5.901,0.697-11.752,6.059-14.101 c0.161,0.061,0.347,0.069,0.534-0.025c0.546-0.274,1.098-0.495,1.652-0.692c0.148-0.035,0.29-0.081,0.44-0.11 c0.074-0.015,0.126-0.053,0.168-0.098c3.572-1.085,7.18-0.572,9.777,1.58c-3.986-0.178-8.049,0.128-12.013,0.455 c-0.193,0.016-0.198,0.312,0,0.305c4.159-0.157,8.345-0.079,12.497-0.313c0.546,0.524,1.024,1.146,1.454,1.829 c-3.84-0.457-7.893-0.121-11.707,0.294c-0.188,0.021-0.196,0.311,0,0.3c4-0.227,7.996-0.012,11.987-0.163 c0.456,0.815,0.821,1.74,1.086,2.768c-0.028-0.014-0.046-0.039-0.082-0.042c-5.052-0.465-10.205-0.451-15.243,0.162 c-0.131,0.016-0.139,0.215,0,0.211c5.103-0.157,10.144-0.165,15.243,0.105c0.075,0.004,0.129-0.022,0.167-0.061 C35.37,27.75,35.435,28.268,35.476,28.787z M51.24,6.239c-1.7,0.025-3.576,0.277-5.189,0.644c-0.171,0.039-0.128,0.295,0.041,0.299 c1.601,0.035,3.427-0.087,5.062-0.382c-0.11,0.478-0.284,0.943-0.537,1.365c-1.325-0.037-2.734,0.212-4.032,0.345 c-0.223,0.023-0.233,0.366,0,0.356c1.172-0.047,2.447-0.014,3.645-0.165c-0.618,0.763-1.459,1.334-2.443,1.502 c-2.241,0.382-4.636-1.145-5.066-3.414c-0.375-1.979,0.785-3.853,2.361-4.961c0.118,0.032,0.248,0.047,0.399,0.019 c1.468-0.27,3.053,0.007,4.2,0.867c-1.41-0.252-2.956-0.217-4.339-0.092c-0.207,0.019-0.215,0.329,0,0.328 c1.651-0.004,3.264,0.219,4.904,0.281c0.267,0.296,0.506,0.623,0.677,1.013c-1.744-0.152-3.629,0.044-5.331,0.096 c-0.247,0.008-0.248,0.377,0,0.384c1.77,0.054,3.739,0.268,5.54,0.081c0.009,0.033,0.026,0.058,0.034,0.092 C51.276,5.339,51.283,5.792,51.24,6.239z"/> </g> </g>
</svg>